<svg width="110" height="110" viewBox="0 0 110 110" fill="none" xmlns="http://www.w3.org/2000/svg">
<g clip-path="url(#clip0_243_3697)">
<rect width="110" height="110" rx="55" fill="#4C9B89"/>
<path d="M32.25 77.75H36.8812L68.65 45.9812L64.0188 41.35L32.25 73.1187V77.75ZM25.75 84.25V70.4375L68.65 27.6187C69.3 27.0229 70.0177 26.5625 70.8031 26.2375C71.5885 25.9125 72.4146 25.75 73.2812 25.75C74.1479 25.75 74.9875 25.9125 75.8 26.2375C76.6125 26.5625 77.3167 27.05 77.9125 27.7L82.3813 32.25C83.0313 32.8458 83.5052 33.55 83.8031 34.3625C84.101 35.175 84.25 35.9875 84.25 36.8C84.25 37.6667 84.101 38.4927 83.8031 39.2781C83.5052 40.0635 83.0313 40.7813 82.3813 41.4313L39.5625 84.25H25.75ZM66.2938 43.7063L64.0188 41.35L68.65 45.9812L66.2938 43.7063Z" fill="#F5F5F5"/>
</g>
<defs>
<clipPath id="clip0_243_3697">
<rect width="110" height="110" rx="55" fill="white"/>
</clipPath>
</defs>
</svg>
